<?xml version="1.0" encoding="UTF-8"?>
<svg version="1.1" xmlns="http://www.w3.org/2000/svg" width="512" height="512">
<path d="M0 0 C7.08916067 5.84612436 13.56412413 12.2704424 20.06884766 18.75170898 C21.37911379 20.05297995 22.68944322 21.35418717 23.99983215 22.65533447 C26.72890851 25.36803811 29.45366642 28.08499951 32.17602539 30.80444336 C35.6369371 34.2599663 39.11373979 37.69901579 42.59467602 41.13434982 C45.30153518 43.81124265 47.99685104 46.4995413 50.6892643 49.19095612 C51.96518343 50.46271621 53.24515229 51.73042868 54.52950096 52.99367523 C69.01545075 67.2602702 78.67674431 82.54018707 81.15087891 103.20483398 C81.28494141 104.28635742 81.41900391 105.36788086 81.55712891 106.48217773 C87.20973047 165.64179187 50.81612606 225.44552058 14.90087891 269.20483398 C10.25328538 274.81009787 5.48939427 280.28274501 0.52978516 285.61499023 C-1.3364146 287.64666583 -3.13685515 289.70488051 -4.93115234 291.79858398 C-9.27938579 296.78191986 -13.92471701 301.46649526 -18.59960938 306.140625 C-20.08805347 307.63125014 -21.56829386 309.12970416 -23.04833984 310.62866211 C-28.57064922 316.18298106 -34.24516023 321.32484451 -40.375 326.21875 C-43.0732164 328.38472497 -45.65548884 330.65045888 -48.23291016 332.95703125 C-75.53119295 357.31348339 -109.46565235 377.60941264 -143.84912109 390.20483398 C-144.88891113 390.58768555 -144.88891113 390.58768555 -145.94970703 390.97827148 C-157.37920114 395.12884732 -168.88116906 398.06878729 -180.84912109 400.20483398 C-181.90099609 400.39819336 -182.95287109 400.59155273 -184.03662109 400.79077148 C-206.30042939 403.20876706 -231.89716493 402.83968871 -250.84912109 389.20483398 C-259.66212241 381.57221221 -267.93372163 373.32445218 -276.20849609 365.11889648 C-276.81636208 364.51635418 -277.42422806 363.91381187 -278.05051422 363.29301071 C-281.25946144 360.11050404 -284.4649172 356.9245236 -287.66796875 353.73608398 C-290.28900133 351.12842444 -292.91713336 348.52825138 -295.55175781 345.93432617 C-298.77351851 342.76227434 -301.98246044 339.57775558 -305.18299103 336.38428879 C-306.38898172 335.18493349 -307.5991594 333.98977066 -308.81389618 332.79927444 C-318.27884728 323.51275399 -326.45000303 313.82408919 -330.72412109 301.01733398 C-331.27712891 299.41825195 -331.27712891 299.41825195 -331.84130859 297.78686523 C-337.78454183 276.66304787 -336.09394582 253.32635081 -330.84912109 232.20483398 C-330.57624268 231.08794189 -330.57624268 231.08794189 -330.29785156 229.94848633 C-321.36596455 194.48434513 -299.45026869 141.38819017 -268.84912109 119.20483398 C-262.21176222 115.63087151 -256.57115706 115.12205989 -249.41162109 117.20483398 C-244.34118589 119.72272664 -240.12996746 123.55755288 -235.84912109 127.20483398 C-235.2809668 127.68807129 -234.7128125 128.17130859 -234.12744141 128.66918945 C-229.66543435 132.47390032 -225.24742955 136.32675556 -220.84912109 140.20483398 C-220.26179199 140.72078125 -219.67446289 141.23672852 -219.06933594 141.76831055 C-217.42571227 143.21793119 -215.79195284 144.67779436 -214.16162109 146.14233398 C-213.22962891 146.97635742 -212.29763672 147.81038086 -211.33740234 148.66967773 C-206.14309368 153.96183837 -203.78308188 158.53360622 -203.47412109 165.82983398 C-203.60906402 174.22083053 -207.92794252 180.12823555 -212.91162109 186.57983398 C-219.37133869 194.94516827 -224.58495288 204.05649767 -229.84912109 213.20483398 C-230.24019043 213.87949707 -230.63125977 214.55416016 -231.03417969 215.24926758 C-246.47030865 242.11023213 -258.2038968 275.22711936 -250.07177734 306.16186523 C-247.87469847 312.90397422 -244.58367286 317.96107413 -239.84912109 323.20483398 C-239.10662109 324.09170898 -238.36412109 324.97858398 -237.59912109 325.89233398 C-232.84799681 328.15991603 -228.76834943 326.5570653 -223.84912109 325.20483398 C-222.84655273 324.92953857 -222.84655273 324.92953857 -221.82373047 324.64868164 C-195.99633878 317.39269021 -170.68552122 305.5241466 -148.54882812 290.36743164 C-146.68810027 289.09469592 -144.81393176 287.84320625 -142.93896484 286.59155273 C-133.91260235 280.52240058 -125.30475061 274.04157684 -116.84912109 267.20483398 C-115.39892578 266.04661133 -115.39892578 266.04661133 -113.91943359 264.86499023 C-108.23481149 260.28347468 -102.78727061 255.49632792 -97.41552734 250.55249023 C-95.17353153 248.501593 -92.90121081 246.50005865 -90.59912109 244.51733398 C-86.08961753 240.59119536 -81.61357921 236.57772593 -78.03662109 231.76733398 C-77.64474609 231.25170898 -77.25287109 230.73608398 -76.84912109 230.20483398 C-76.18912109 230.20483398 -75.52912109 230.20483398 -74.84912109 230.20483398 C-74.58228516 229.60799805 -74.31544922 229.01116211 -74.04052734 228.39624023 C-72.82425177 226.15909074 -71.6455485 224.86063332 -69.78662109 223.14233398 C-65.92381575 219.39126268 -62.58421901 215.3224223 -59.21630859 211.12670898 C-57.68702878 209.23908307 -56.13119609 207.37252771 -54.54443359 205.53295898 C-46.57118994 196.27876799 -39.66768685 186.32743996 -32.84912109 176.20483398 C-32.32527832 175.42720703 -31.80143555 174.64958008 -31.26171875 173.84838867 C-15.28910489 149.89717419 -2.58966735 123.96718689 5.15087891 96.20483398 C5.47830078 95.16456055 5.80572266 94.12428711 6.14306641 93.05249023 C7.15446312 89.25193249 7.81216935 86.60306064 6.09228516 82.96655273 C-0.97054578 73.97287593 -12.70042405 69.56295016 -23.66162109 67.73608398 C-69.94446232 62.54107119 -115.11833968 91.83342267 -149.84912109 119.20483398 C-152.84386352 121.73680379 -155.70772927 124.39019662 -158.52490234 127.11889648 C-164.24226811 132.25011215 -169.61888373 134.82026695 -177.28662109 135.51733398 C-184.88056336 134.8511987 -189.95236953 131.82921397 -195.41162109 126.82983398 C-196.62508342 125.75422363 -197.83862803 124.67870611 -199.05224609 123.60327148 C-199.67292969 123.04607422 -200.29361328 122.48887695 -200.93310547 121.91479492 C-203.50448585 119.61994933 -206.11441486 117.37149899 -208.7265625 115.12329102 C-210.63109009 113.4811586 -212.52583473 111.82829653 -214.41943359 110.17358398 C-216.47224298 108.38401323 -218.54004088 106.64286023 -220.65380859 104.92358398 C-226.46593945 100.12142996 -230.06783518 95.52847985 -231.18505859 87.91577148 C-231.50060174 80.85245949 -229.92389914 75.57511073 -225.27099609 70.25952148 C-222.5670177 67.44098677 -219.82426006 64.73765965 -216.84912109 62.20483398 C-216.18912109 62.20483398 -215.52912109 62.20483398 -214.84912109 62.20483398 C-214.84912109 61.54483398 -214.84912109 60.88483398 -214.84912109 60.20483398 C-212.86454895 58.49853004 -210.87086361 56.906853 -208.78662109 55.32983398 C-207.49162183 54.33468743 -206.19737544 53.33856054 -204.90380859 52.34155273 C-204.23188477 51.82512207 -203.55996094 51.30869141 -202.86767578 50.77661133 C-200.92499682 49.26391574 -199.01166332 47.7219727 -197.10693359 46.16186523 C-188.6890654 39.26844021 -180.06460161 32.99024028 -170.84912109 27.20483398 C-170.11097168 26.74109375 -169.37282227 26.27735352 -168.61230469 25.79956055 C-143.85719329 10.36820441 -118.3026138 -2.45441224 -90.09912109 -10.29516602 C-89.26759521 -10.5263916 -88.43606934 -10.75761719 -87.5793457 -10.99584961 C-59.16927959 -18.40863952 -23.95001318 -19.24362634 0 0 Z M-177.84912109 51.20483398 C-178.45079102 51.63924805 -179.05246094 52.07366211 -179.67236328 52.52124023 C-187.74206923 58.35337119 -195.32139591 64.70048582 -202.84912109 71.20483398 C-203.65994141 71.9022168 -204.47076172 72.59959961 -205.30615234 73.31811523 C-207.16835965 74.93156758 -209.01234084 76.56258957 -210.84912109 78.20483398 C-211.65349609 78.90608398 -212.45787109 79.60733398 -213.28662109 80.32983398 C-215.23904416 82.67274166 -215.58270137 84.17938968 -215.84912109 87.20483398 C-212.54176801 93.27654189 -205.99497147 97.6864448 -200.68896484 101.90795898 C-197.90897055 104.15642754 -195.24696502 106.49033249 -192.59912109 108.89233398 C-191.78572266 109.62838867 -190.97232422 110.36444336 -190.13427734 111.12280273 C-188.69835058 112.43109156 -187.26781452 113.74534712 -185.84521484 115.06811523 C-183.38958055 117.29038472 -181.3322373 118.99273418 -178.28662109 120.32983398 C-172.90044151 120.05361965 -169.34134716 115.75280355 -165.59912109 112.26733398 C-128.80338382 78.66643618 -77.5599649 51.45068393 -26.92333984 52.81811523 C-12.77027422 53.51423964 -0.39461049 58.00145994 11.15087891 66.20483398 C11.92523372 47.53427908 7.6447415 30.63373507 -4.50146484 16.24780273 C-16.60398167 3.17708456 -32.95619299 0.55626823 -49.84912109 -0.79516602 C-96.49343552 -0.79516602 -141.28401375 24.52083247 -177.84912109 51.20483398 Z M25.15087891 47.20483398 C25.16658936 47.79159912 25.1822998 48.37836426 25.19848633 48.98291016 C26.41860679 102.01439078 5.08391336 150.81020307 -25.84912109 193.20483398 C-26.32027344 193.85323242 -26.79142578 194.50163086 -27.27685547 195.16967773 C-38.1851018 210.11208192 -49.77025741 224.30018617 -62.48193359 237.74047852 C-64.2792779 239.66556265 -66.0071025 241.64553334 -67.72412109 243.64233398 C-76.09414007 253.32734347 -76.09414007 253.32734347 -79.84912109 255.20483398 C-79.84912109 255.86483398 -79.84912109 256.52483398 -79.84912109 257.20483398 C-80.38408203 257.42010742 -80.91904297 257.63538086 -81.47021484 257.85717773 C-84.71861632 259.69740517 -87.23286192 262.20362815 -89.91162109 264.76733398 C-135.33054368 307.41774359 -198.06719845 345.80075444 -262.03662109 345.26733398 C-263.60766602 345.26056641 -263.60766602 345.26056641 -265.21044922 345.25366211 C-267.75673646 345.24203523 -270.30289569 345.22569679 -272.84912109 345.20483398 C-267.90924454 351.17805206 -262.57550549 356.73053441 -257.11914062 362.22998047 C-256.10842941 363.25221762 -255.10220114 364.27890732 -254.10058594 365.31005859 C-239.60587621 380.22996548 -223.65331117 386.73657247 -202.84912109 387.20483398 C-190.26701868 386.92786947 -177.91910997 384.66966193 -165.84912109 381.20483398 C-164.68123047 380.87104736 -164.68123047 380.87104736 -163.48974609 380.53051758 C-121.34059376 368.15591573 -81.31252706 342.90811451 -49.07958984 313.25170898 C-47.01615835 311.35812211 -44.91337528 309.52657235 -42.78662109 307.70483398 C-38.25287489 303.75845571 -34.06291991 299.48671932 -29.84912109 295.20483398 C-27.19504435 292.53768297 -24.52681994 289.88692631 -21.83349609 287.25952148 C-15.88089985 281.42586737 -10.25597292 275.5359922 -5.07568359 268.98999023 C-3.0966478 266.5144595 -1.0513211 264.11479211 1.02954102 261.72485352 C8.32298733 253.30823984 14.77724066 244.32904941 21.15087891 235.20483398 C21.59818359 234.56819824 22.04548828 233.9315625 22.50634766 233.27563477 C47.73330566 197.1719768 73.38486535 147.11298878 65.46728516 101.56420898 C61.32485382 82.16823232 49.75898518 70.63084331 36.15087891 57.07983398 C35.18847232 56.11385451 34.22623197 55.14770938 33.26416016 54.18139648 C32.36052734 53.27905273 31.45689453 52.37670898 30.52587891 51.44702148 C29.70861328 50.63088379 28.89134766 49.81474609 28.04931641 48.97387695 C26.46143131 47.09121153 26.46143131 47.09121153 25.15087891 47.20483398 Z M-262.84912109 134.20483398 C-265.27190608 136.96211078 -267.39999328 139.91038556 -269.53662109 142.89233398 C-270.45918701 144.16403442 -270.45918701 144.16403442 -271.40039062 145.46142578 C-276.925665 153.15636703 -282.01549722 161.06150851 -286.84912109 169.20483398 C-287.20167969 169.79039062 -287.55423828 170.37594727 -287.91748047 170.97924805 C-293.23319457 179.83046055 -297.71314858 188.94668309 -301.98681641 198.33325195 C-302.70697121 199.89630596 -303.45795205 201.44510962 -304.21630859 202.98999023 C-317.29016645 229.94948144 -325.969738 265.80466357 -316.84912109 295.20483398 C-311.68423414 308.89509523 -301.84510924 319.33614892 -288.84912109 325.89233398 C-278.10852521 330.51034331 -266.44301045 331.79770333 -254.84912109 331.20483398 C-256.37675604 328.06916226 -258.06632001 325.05084201 -259.78662109 322.01733398 C-272.09193773 299.38273696 -269.19486184 272.5619615 -262.34912109 248.64233398 C-257.11047602 231.36061079 -249.38259413 214.5284628 -239.84912109 199.20483398 C-239.06062381 197.90449927 -238.27290183 196.6036942 -237.48583984 195.30249023 C-232.96512779 187.89610422 -228.24618487 180.7136119 -222.984375 173.80834961 C-220.65670003 170.67956099 -218.93520381 168.17126049 -218.84912109 164.20483398 C-222.13170903 158.17859045 -228.60491847 153.82230979 -233.87646484 149.63842773 C-237.07024442 147.02380923 -240.08540893 144.27192761 -243.09912109 141.45483398 C-251.99345476 131.92014084 -251.99345476 131.92014084 -262.84912109 134.20483398 Z " fill="#000000" transform="translate(382.84912109375,62.795166015625)"/>
<path d="M0 0 C2.3125 2.0625 2.3125 2.0625 5 5 C7.31590816 7.06979248 9.6612964 9.10236361 12.01171875 11.1328125 C15.01517584 13.95334784 15.9613077 15.47793428 16.26953125 19.63671875 C16.1479163 24.25914446 15.0421605 28.41470531 13.6875 32.8125 C13.47416016 33.56208984 13.26082031 34.31167969 13.04101562 35.08398438 C11.91784099 38.83572293 11.04078222 41.50028223 8 44 C5.26265134 45.01754846 2.61177623 45.89080143 -0.1875 46.6875 C-0.91775391 46.91244141 -1.64800781 47.13738281 -2.40039062 47.36914062 C-7.42850751 48.83437575 -11.76475629 49.55336255 -17 49 C-19.7578125 47.27734375 -19.7578125 47.27734375 -22.125 44.9375 C-22.96160156 44.11507812 -23.79820312 43.29265625 -24.66015625 42.4453125 C-25.43230469 41.63835937 -26.20445312 40.83140625 -27 40 C-27.63808594 39.35804688 -28.27617187 38.71609375 -28.93359375 38.0546875 C-32.3275659 34.42468371 -33.68194697 32.11829784 -34 27 C-33.50621045 23.72250367 -32.68495801 20.56991665 -31.8125 17.375 C-31.60302734 16.529375 -31.39355469 15.68375 -31.17773438 14.8125 C-29.00645887 6.64283429 -29.00645887 6.64283429 -25 4 C-21.9300979 2.80749995 -18.81895305 1.97868502 -15.625 1.1875 C-14.78710938 0.95869141 -13.94921875 0.72988281 -13.0859375 0.49414062 C-8.4284589 -0.70318288 -4.73219978 -1.42474832 0 0 Z M-12.625 16.4375 C-16.39847215 18.92004747 -16.92890703 22.76787656 -18 27 C-15.38696006 30.48012066 -15.38696006 30.48012066 -12 33 C-8.4724162 32.93700743 -5.34019707 32.09579588 -2 31 C-0.98539018 27.67182129 -0.18081762 24.48339823 0 21 C-1.85641749 17.7260029 -1.85641749 17.7260029 -5 16 C-7.81369051 15.50760416 -9.82304165 15.97050694 -12.625 16.4375 Z " fill="#000000" transform="translate(342,309)"/>
<path d="M0 0 C5.8847991 0.96472116 9.32954475 4.92375783 12.8125 9.625 C14.13367511 13.51409293 13.68914835 16.32831624 12.625 20.25 C12.26341797 21.66152344 12.26341797 21.66152344 11.89453125 23.1015625 C10.63743105 26.03328354 9.53154215 27.01690978 6.8125 28.625 C2.04428708 30.33435935 -2.15353087 31.41983723 -7.1875 30.625 C-11.47704726 27.77830046 -15.33181814 24.53203503 -17.1875 19.625 C-16.91441667 14.07230568 -15.9749284 9.52702925 -13.1875 4.625 C-8.87998429 1.87552189 -4.91793157 0.96430031 0 0 Z " fill="#000000" transform="translate(274.1875,367.375)"/>
<path d="M0 0 C0.99 0.66 1.98 1.32 3 2 C3 2.66 3 3.32 3 4 C3.66 4 4.32 4 5 4 C5 4.66 5 5.32 5 6 C5.66 6 6.32 6 7 6 C9.52826571 9.79239856 9.36444901 11.48083222 9 16 C7.2118557 23.8573932 7.2118557 23.8573932 4.22265625 26.67578125 C0.12546506 29.11681431 -4.26858357 29.85318595 -9 30 C-12.03843071 29.09854586 -13.46456787 28.03936932 -16 26 C-16.33 25.01 -16.66 24.02 -17 23 C-17.66 23 -18.32 23 -19 23 C-21.52826571 19.20760144 -21.36444901 17.51916778 -21 13 C-20.06761443 8.61487413 -19.21247223 5.04407331 -15.75 2.0625 C-10.15276849 -0.10006672 -5.94884113 -1.62241122 0 0 Z " fill="#000000" transform="translate(389,258)"/>
</svg>
