<?xml version="1.0" encoding="UTF-8"?>
<svg version="1.1" xmlns="http://www.w3.org/2000/svg" width="512" height="512">
<path d="M0 0 C7.24063754 4.33221339 12.60861005 9.92925478 15.4375 17.9375 C17.12320805 25.75405525 17.85782896 33.6532793 18.40234375 41.6171875 C18.56404512 43.78388465 18.72616658 45.95055049 18.88867188 48.1171875 C19.13495139 51.48078882 19.37723785 54.84456285 19.61206055 58.20898438 C19.84352354 61.49181 20.09061671 64.77316937 20.33984375 68.0546875 C20.43844948 69.55949173 20.43844948 69.55949173 20.53904724 71.09469604 C21.00359006 77.05538879 21.58071464 82.32292036 26.234375 86.58203125 C30.74182765 89.27748794 34.18066111 90.22984861 39.4375 90.9375 C41.875 92.5625 41.875 92.5625 43.4375 94.9375 C44 98.4375 44 98.4375 43.4375 101.9375 C40.68247393 105.29518802 39.00017691 105.87185436 34.6875 106.375 C26.42942974 105.89379666 19.35653879 102.69454405 13.4375 96.9375 C7.86614045 90.04433231 5.38443405 83.58051148 4.65625 74.72265625 C4.59800552 74.03818924 4.53976105 73.35372223 4.47975159 72.64851379 C4.35639116 71.18771981 4.23636197 69.72664125 4.11941528 68.26531982 C3.93571271 65.9777436 3.74149814 63.69126751 3.54467773 61.40478516 C2.95977213 54.56075166 2.41220481 47.71623706 1.94140625 40.86328125 C1.86535156 39.82743896 1.78929687 38.79159668 1.7109375 37.72436523 C1.57505489 35.84858761 1.45288427 33.97174088 1.34765625 32.09399414 C0.8578442 25.46048488 -0.70715613 19.54810011 -5.75 14.9375 C-10.90168449 13.10578996 -15.71994546 13.5354881 -21 14.6875 C-23.59422997 15.70911083 -23.59422997 15.70911083 -24.8125 17.625 C-25.06 18.388125 -25.3075 19.15125 -25.5625 19.9375 C-26.07083878 21.41024132 -26.07083878 21.41024132 -26.58944702 22.91273499 C-27.96345396 27.7807479 -27.87032154 32.62002889 -27.88134766 37.64624023 C-27.89139328 38.70064804 -27.9014389 39.75505585 -27.91178894 40.84141541 C-27.94255918 44.30963623 -27.95963915 47.77778006 -27.9765625 51.24609375 C-27.99527907 53.6574825 -28.01485285 56.06886473 -28.0352478 58.48023987 C-28.08652311 64.81440384 -28.12617361 71.14858903 -28.16339111 77.48284912 C-28.2034595 83.95150991 -28.25453894 90.42008277 -28.3046875 96.88867188 C-28.40139238 109.57155167 -28.4861888 122.25448194 -28.5625 134.9375 C-27.61777832 135.23841553 -26.67305664 135.53933105 -25.69970703 135.84936523 C-19.61495586 137.95985052 -15.02472733 142.35863674 -12.0625 148.0625 C-9.61528801 154.4536563 -9.154501 161.99267522 -11.46875 168.4765625 C-12.41791457 170.34099291 -13.48114188 172.14650062 -14.5625 173.9375 C-14.5625 174.5975 -14.5625 175.2575 -14.5625 175.9375 C-13.5415625 176.68 -13.5415625 176.68 -12.5 177.4375 C-5.59747699 183.31198767 -1.05044907 190.98225095 0.4375 199.9375 C0.63960635 203.29062811 0.63010292 206.58478245 0.4375 209.9375 C0.99824219 210.18242187 1.55898438 210.42734375 2.13671875 210.6796875 C15.15275975 217.7954179 23.45511857 231.3872863 30.4375 243.9375 C30.92347656 244.79730469 31.40945313 245.65710938 31.91015625 246.54296875 C47.80954856 277.88164234 47.62961897 320.17347982 36.9753418 353.01269531 C29.33476109 375.15037544 15.92148439 396.2048999 -5.28515625 407.37109375 C-15.24649928 412.0925742 -24.26325542 414.48566065 -35.3125 414.375 C-36.89140015 414.36472778 -36.89140015 414.36472778 -38.50219727 414.35424805 C-57.03476324 413.97358837 -71.61594785 406.27300059 -85.01171875 393.625 C-108.55107641 368.64781072 -116.4050792 333.57965238 -115.48535156 300.13183594 C-114.04859901 270.44244563 -105.6847733 241.58783013 -84.5625 219.9375 C-83.2321875 218.5453125 -83.2321875 218.5453125 -81.875 217.125 C-74.27678571 209.9375 -74.27678571 209.9375 -71.5625 209.9375 C-71.74167969 209.22207031 -71.92085938 208.50664062 -72.10546875 207.76953125 C-73.30797549 200.31810059 -70.74935313 192.12041101 -66.5625 185.9375 C-63.42443901 182.07718688 -60.07901645 178.45401645 -56.5625 174.9375 C-56.83964844 174.40640625 -57.11679687 173.8753125 -57.40234375 173.328125 C-57.76457031 172.62171875 -58.12679687 171.9153125 -58.5 171.1875 C-58.85964844 170.49140625 -59.21929687 169.7953125 -59.58984375 169.078125 C-62.63278132 162.38121821 -62.0104066 155.92340502 -59.5390625 149.14453125 C-56.85195418 143.07166645 -53.39560753 139.23447382 -47.5625 135.9375 C-46.5725 135.6075 -45.5825 135.2775 -44.5625 134.9375 C-44.56011165 134.36857812 -44.55772329 133.79965624 -44.55526257 133.2134943 C-44.49600618 119.34049245 -44.42020193 105.46766489 -44.32678509 91.59484959 C-44.28190864 84.88592161 -44.24247547 78.17704576 -44.21606445 71.46801758 C-44.19000894 64.99047936 -44.14958987 58.51317388 -44.09931374 52.03577995 C-44.08266037 49.56755409 -44.0711366 47.09928799 -44.06488609 44.63101387 C-44.05522872 41.16725532 -44.02714832 37.70409017 -43.99487305 34.24047852 C-43.99702568 32.71809067 -43.99702568 32.71809067 -43.9992218 31.16494751 C-43.87255056 21.5191613 -41.71963895 13.17345985 -34.7734375 6.12109375 C-25.31458144 -2.62560906 -12.03694526 -5.59385646 0 0 Z M-43.5625 151.9375 C-46.24583228 155.96249843 -46.35889219 159.20892136 -45.5625 163.9375 C-43.01724088 167.63969508 -41.37385075 168.7056855 -37.0625 169.9375 C-32.23476887 169.9375 -30.13961129 168.46022814 -26.75 165.1875 C-24.99151271 161.85562934 -25.04987513 159.65403027 -25.5625 155.9375 C-27.35273785 152.96703127 -29.41254828 150.51247586 -32.5625 148.9375 C-37.21658901 148.5238032 -39.81489476 149.12679607 -43.5625 151.9375 Z M-53.375 194.2265625 C-57.01211625 199.46688131 -57.31440724 204.70333241 -56.5625 210.9375 C-54.44399029 218.13028446 -49.54418956 222.57000891 -43.25 226.3125 C-36.50938619 227.88008461 -30.38199514 227.68673108 -24.3125 224.19921875 C-19.25193903 220.55064466 -16.50445271 215.76335812 -14.5625 209.9375 C-13.78678336 202.82676412 -15.8578995 197.54453605 -19.6875 191.6875 C-24.40940429 187.1708959 -29.55519278 184.77790452 -36.125 184.4375 C-43.63356893 184.84301505 -48.84506475 188.39180895 -53.375 194.2265625 Z M-75.5625 231.9375 C-97.76473737 256.6849674 -100.76463156 289.190886 -99.5625 320.9375 C-99.10067867 327.06205671 -98.0669699 332.98713809 -96.5625 338.9375 C-96.39089355 339.6190918 -96.21928711 340.30068359 -96.04248047 341.00292969 C-90.80593486 360.96638239 -80.37008121 380.74658753 -62.390625 391.90625 C-49.21917072 399.31139941 -35.43619959 401.48067145 -20.6875 397.375 C-2.66655494 390.93413919 9.13096605 376.74626341 17.4140625 360.046875 C31.72171327 329.74853994 32.42502187 292.43324815 21.22363281 260.98144531 C16.30985955 248.20563484 9.43532935 237.36402482 -0.5625 227.9375 C-1.119375 227.339375 -1.67625 226.74125 -2.25 226.125 C-3.51468271 224.71386223 -3.51468271 224.71386223 -5.5625 224.9375 C-6.9165932 226.92350337 -8.24707624 228.92567543 -9.5625 230.9375 C-10.85932374 232.30636951 -12.18073134 233.6544291 -13.5625 234.9375 C-12.7375 235.535625 -11.9125 236.13375 -11.0625 236.75 C4.2787964 249.75048826 10.98515435 271.70841915 13.4375 290.9375 C14.98498683 319.98969766 12.7821679 348.33090541 -6.72265625 371.50390625 C-14.58644845 379.92246333 -24.2893698 384.75699446 -35.875 385.25 C-47.69976823 384.86463019 -56.77480567 380.07028684 -64.85546875 371.5078125 C-69.13159609 366.35720508 -72.6544892 360.96123665 -75.5625 354.9375 C-75.98273438 354.08027344 -76.40296875 353.22304688 -76.8359375 352.33984375 C-88.90990363 325.74053048 -88.78459746 292.57777519 -78.93359375 265.36328125 C-74.45279127 254.16765796 -68.76205005 242.97565105 -58.5625 235.9375 C-59.92050471 232.97219503 -61.48678263 230.64618729 -63.625 228.1875 C-64.15222656 227.57390625 -64.67945313 226.9603125 -65.22265625 226.328125 C-65.66480469 225.86921875 -66.10695313 225.4103125 -66.5625 224.9375 C-69.72507873 224.9375 -73.48698489 229.88656798 -75.5625 231.9375 Z M-54.91015625 251.81640625 C-69.85856501 271.00549834 -73.32930696 296.46776807 -70.59326172 320.05371094 C-68.33579512 337.08763972 -61.91703479 356.45858969 -47.75 367.328125 C-42.49182173 370.66143444 -37.74988787 371.25502405 -31.6875 370.375 C-21.04945164 367.17743633 -14.68874232 359.4410126 -9.5625 349.9375 C2.25276604 325.49812927 2.60909547 297.06952252 -5.875 271.5625 C-8.13326262 265.57468245 -11.0063096 260.24571382 -14.5625 254.9375 C-15.2225 253.9475 -15.8825 252.9575 -16.5625 251.9375 C-17.2225 251.9375 -17.8825 251.9375 -18.5625 251.9375 C-18.81257813 251.33292969 -19.06265625 250.72835937 -19.3203125 250.10546875 C-20.75035771 247.60963513 -21.98769693 246.71525957 -24.4375 245.25 C-25.11554688 244.83363281 -25.79359375 244.41726563 -26.4921875 243.98828125 C-36.89107578 238.71035493 -47.57130893 243.78684389 -54.91015625 251.81640625 Z " fill="#000000" transform="translate(388.5625,50.0625)"/>
<path d="M0 0 C1.50277034 0.89917829 2.98544864 1.83352752 4.4375 2.8125 C5.51 3.493125 6.5825 4.17375 7.6875 4.875 C16.16830932 12.64509361 17.49848587 24.19771208 18.1875 35 C18.29636184 36.40448377 18.4076441 37.80878184 18.52124023 39.21289062 C18.80116873 42.73806753 19.05380783 46.26452628 19.29681396 49.79241943 C19.59395111 54.05894788 19.92213402 58.32312886 20.25292969 62.5871582 C20.41265278 64.67223905 20.56364848 66.75801494 20.70410156 68.84448242 C21.10611292 74.39119129 21.91623605 79.45967084 23.4375 84.8125 C24.0975 84.8125 24.7575 84.8125 25.4375 84.8125 C25.4375 85.4725 25.4375 86.1325 25.4375 86.8125 C28.95898679 88.32994067 32.31417984 89.23071666 36.0625 90 C40.95090607 91.30797892 40.95090607 91.30797892 42.921875 93.3515625 C43.8125 95.125 43.8125 95.125 44.4375 98.8125 C42.51615169 104.27317416 42.51615169 104.27317416 39.4375 105.8125 C31.21591181 106.71635325 24.057163 104.84639483 17.25 100.1875 C10.24868898 94.5557069 6.24726196 87.19884246 5.12197876 78.32408142 C4.85804207 75.3987152 4.639949 72.47323107 4.4375 69.54296875 C4.35628906 68.46678787 4.27507812 67.39060699 4.19140625 66.28181458 C3.9331979 62.85501425 3.68434574 59.42763629 3.4375 56 C3.19028072 52.58311088 2.9407694 49.16647543 2.68359375 45.75032043 C2.52404435 43.63038498 2.37005357 41.51002096 2.22265625 39.38920593 C1.67542064 26.4865689 1.67542064 26.4865689 -4.5625 15.8125 C-8.82133229 13.28941028 -12.72165692 13.13175644 -17.5625 13.8125 C-22.05760296 16.06005148 -24.51857149 18.24412548 -26.5625 22.8125 C-26.99251461 26.42967734 -26.94120452 30.02273625 -26.90307617 33.66137695 C-26.90351425 34.75450699 -26.90395233 35.84763702 -26.90440369 36.97389221 C-26.90231554 40.5830376 -26.87898247 44.19171711 -26.85546875 47.80078125 C-26.84987291 50.30470018 -26.84560276 52.80862239 -26.84260559 55.31254578 C-26.83232592 61.22692108 -26.80868742 67.14114717 -26.77855712 73.05544585 C-26.7416975 80.45164773 -26.72561424 87.84787038 -26.70898438 95.24414062 C-26.67681814 108.43367848 -26.62619747 121.62307867 -26.5625 134.8125 C-25.62664062 135.25980469 -24.69078125 135.70710937 -23.7265625 136.16796875 C-17.12194513 139.60073901 -12.83339072 145.31755051 -10.3125 152.25 C-8.47399397 160.98290364 -10.63402419 167.95554838 -14.5625 175.8125 C-14.05460937 176.19019531 -13.54671875 176.56789062 -13.0234375 176.95703125 C-3.90016588 184.25223159 -0.21904327 192.61210362 1.30859375 204.0625 C1.4375 206.8125 1.4375 206.8125 0.4375 209.8125 C1.118125 210.01875 1.79875 210.225 2.5 210.4375 C18.69139378 218.01645028 29.39925235 239.36334157 35.78125 255.1328125 C48.01700554 289.0795733 47.73659018 329.3245387 33.875 362.765625 C23.41300969 384.94049577 8.00113962 402.73324476 -15.109375 411.61328125 C-28.89326692 416.40022109 -47.26107237 415.74578987 -60.5625 409.8125 C-61.88894531 409.25175781 -61.88894531 409.25175781 -63.2421875 408.6796875 C-84.39036529 398.97338098 -98.22742803 378.85514071 -106.5625 357.8125 C-108.62591056 352.24219368 -110.2099781 346.59348264 -111.5625 340.8125 C-111.80806641 339.78310303 -111.80806641 339.78310303 -112.05859375 338.73291016 C-120.03841202 303.47497342 -114.54031289 263.96843504 -95.3984375 233.265625 C-89.40176818 224.23883655 -82.30129718 216.27862342 -73.5625 209.8125 C-72.9025 209.8125 -72.2425 209.8125 -71.5625 209.8125 C-71.60890625 209.14605469 -71.6553125 208.47960937 -71.703125 207.79296875 C-72.08075539 198.14990695 -69.70751642 189.39135359 -63.5625 181.8125 C-62.9025 181.8125 -62.2425 181.8125 -61.5625 181.8125 C-61.2325 180.8225 -60.9025 179.8325 -60.5625 178.8125 C-59.9025 178.8125 -59.2425 178.8125 -58.5625 178.8125 C-58.5625 178.1525 -58.5625 177.4925 -58.5625 176.8125 C-57.9025 176.1525 -57.2425 175.4925 -56.5625 174.8125 C-56.85125 174.32523438 -57.14 173.83796875 -57.4375 173.3359375 C-61.3788772 165.80900187 -62.0613778 157.63938743 -59.9375 149.3828125 C-57.61351256 144.05009133 -53.37679462 139.9820534 -48.5625 136.8125 C-46.57115455 136.1204106 -44.57169132 135.45093142 -42.5625 134.8125 C-42.56618717 134.22811692 -42.56987434 133.64373384 -42.57367325 133.04164219 C-42.66218072 118.79328506 -42.72828542 104.54496937 -42.76974869 90.2963953 C-42.79033529 83.40574811 -42.81838056 76.51528492 -42.86425781 69.62475586 C-42.9085288 62.97228354 -42.93165291 56.31995182 -42.94200897 49.66732597 C-42.94938714 47.13205397 -42.96379493 44.59679215 -42.98542023 42.06160164 C-43.01455 38.50446293 -43.01845183 34.94810836 -43.01660156 31.39086914 C-43.03098267 30.34789169 -43.04536377 29.30491425 -43.06018066 28.23033142 C-43.00625758 18.61987497 -40.01041658 11.58265975 -33.5 4.5390625 C-24.75208775 -3.25645607 -10.50074079 -5.10630535 0 0 Z M-44.5625 153.8125 C-46.13705739 156.96161479 -45.91049118 159.33258816 -45.5625 162.8125 C-43.09231455 166.85462164 -41.62284291 168.49061019 -37.0625 169.875 C-32.44884462 169.7926133 -30.40301916 168.3366103 -26.94921875 165.4765625 C-24.72560374 162.80822448 -25.08476007 160.3877814 -25.2265625 157.0390625 C-25.76179607 153.4915842 -26.73683378 152.01789802 -29.5625 149.8125 C-36.26430555 147.54889205 -39.85177216 148.74846757 -44.5625 153.8125 Z M-52 192.1875 C-55.60981537 196.89725911 -57.12904884 201.59994155 -56.93359375 207.6015625 C-55.840325 214.11514262 -52.63963235 219.37262142 -47.4375 223.375 C-42.02721848 227.09062135 -36.9815659 227.48015916 -30.5625 226.8125 C-23.37101914 224.71445813 -18.92357774 219.78340348 -15.1875 213.5 C-13.63471923 206.82304268 -13.78597792 200.65993585 -17.2265625 194.6328125 C-20.54130178 190.11623792 -25.03657566 186.12819627 -30.5625 184.8125 C-38.93574532 183.7617398 -46.22604548 185.86698182 -52 192.1875 Z M-72.5078125 228.7421875 C-92.30146977 248.68636688 -99.74047148 277.84406509 -99.9375 305.1875 C-99.71205104 330.72491192 -94.56963553 356.7316853 -78.078125 376.9375 C-76.5625 378.8125 -76.5625 378.8125 -74.5625 381.8125 C-73.9025 381.8125 -73.2425 381.8125 -72.5625 381.8125 C-72.36398438 382.3796875 -72.16546875 382.946875 -71.9609375 383.53125 C-67.59366513 390.65551553 -55.63098772 395.97712322 -47.890625 398.22265625 C-32.33871576 400.97892185 -19.22584163 398.34774935 -6.03515625 389.59375 C-3.46228397 387.74030646 -0.95224064 385.89871366 1.4375 383.8125 C1.4375 383.1525 1.4375 382.4925 1.4375 381.8125 C2.0975 381.8125 2.7575 381.8125 3.4375 381.8125 C25.97853413 357.12024685 29.64471273 323.77681051 28.4375 291.8125 C26.76776378 268.56122148 17.35160944 242.72267338 -0.5625 227.1875 C-1.5525 226.40375 -2.5425 225.62 -3.5625 224.8125 C-4.305 225.555 -5.0475 226.2975 -5.8125 227.0625 C-7.47929687 228.72929687 -9.16256375 230.38012787 -10.875 232 C-12.78963951 233.64372273 -12.78963951 233.64372273 -12.5625 235.8125 C-11.551875 236.6375 -10.54125 237.4625 -9.5 238.3125 C6.32099467 251.58685569 12.28835752 274.80866433 14.12109375 294.50390625 C16.23048514 321.1447383 11.82434649 348.0696511 -4.875 369.6875 C-12.73345878 378.80916281 -21.10646329 383.62864564 -33.05859375 385.125 C-43.49236092 385.65920888 -52.87807434 381.68519056 -60.5625 374.8125 C-61.8309375 373.69875 -61.8309375 373.69875 -63.125 372.5625 C-81.60542728 351.71278718 -86.50716348 323.96605473 -85.375 296.875 C-83.71856136 275.87964018 -77.23216602 256.12351583 -63.5625 239.8125 C-61.92893049 238.43881655 -60.2699998 237.09312485 -58.5625 235.8125 C-60.09211986 232.37085531 -62.18979066 229.72098242 -64.5625 226.8125 C-65.0575 225.8225 -65.0575 225.8225 -65.5625 224.8125 C-68.68003133 224.8125 -70.27877543 226.75362746 -72.5078125 228.7421875 Z M-57.1875 255.3125 C-70.85055872 276.05664166 -73.82876053 302.81139803 -69.4375 326.9375 C-65.58140624 342.74027675 -59.67635699 358.08444526 -45.6875 367.5625 C-41.2959205 370.1564049 -37.56128896 371.38292181 -32.40625 370.40234375 C-22.0759237 367.44829496 -15.92469197 360.86777027 -10.5625 351.8125 C1.49343863 329.54250225 2.97031415 302.83638347 -3.1875 278.5625 C-7.45874054 265.16346024 -13.81238532 250.76689337 -26.625 243.75 C-38.76763515 238.3842178 -49.85944907 245.48258147 -57.1875 255.3125 Z " fill="#000000" transform="translate(194.5625,50.1875)"/>
<path d="M0 0 C5.33454364 3.77506921 9.74371223 9.05989086 11.19140625 15.55078125 C12.22179373 24.28617736 11.3829016 31.31415137 6.19140625 38.55078125 C1.48840502 43.93868558 -4.15087922 47.01592408 -11.2578125 47.83203125 C-19.19945603 48.12391401 -24.91501629 46.34486238 -31.05859375 41.30078125 C-37.12962598 35.64720703 -39.42600508 30.0653275 -40.12109375 21.86328125 C-40.02718271 14.7797054 -36.78975795 7.53194545 -31.80859375 2.55078125 C-22.15640471 -4.79327563 -10.67215656 -6.08124491 0 0 Z M-21.80859375 14.55078125 C-24.49192603 18.57577968 -24.60498594 21.82220261 -23.80859375 26.55078125 C-21.26333463 30.25297633 -19.6199445 31.31896675 -15.30859375 32.55078125 C-10.48086262 32.55078125 -8.38570504 31.07350939 -4.99609375 27.80078125 C-3.23760646 24.46891059 -3.29596888 22.26731152 -3.80859375 18.55078125 C-6.25630819 14.54543034 -7.73461818 12.88273734 -12.24609375 11.48828125 C-16.31094206 11.55959438 -18.42005141 12.34428857 -21.80859375 14.55078125 Z " fill="#000000" transform="translate(366.80859375,334.44921875)"/>
<path d="M0 0 C6.00829192 3.79536136 9.88901804 9.31516315 12.2109375 15.94921875 C13.69751442 22.96693323 12.76783219 30.04969357 9.25390625 36.31640625 C4.95790421 42.28376355 -0.84154045 46.7232802 -8.1015625 48.19921875 C-16.81397569 49.18736785 -23.48868559 47.53159873 -30.3515625 42.07421875 C-36.53393289 36.22043891 -38.31297018 30.57804424 -38.6015625 22.13671875 C-38.31324543 13.75750387 -36.37932937 9.08673551 -30.2890625 3.38671875 C-21.23494889 -3.88979824 -10.48321306 -5.39298867 0 0 Z M-21.9140625 16.94921875 C-23.67254979 20.28108941 -23.61418737 22.48268848 -23.1015625 26.19921875 C-20.63137705 30.24134039 -19.16190541 31.87732894 -14.6015625 33.26171875 C-9.98990036 33.17936764 -7.9418122 31.72680466 -4.4921875 28.86328125 C-2.26221865 26.19483538 -2.5656304 23.78344964 -2.69140625 20.42578125 C-2.99771301 17.91343544 -2.99771301 17.91343544 -5.1640625 15.19921875 C-11.698462 10.7502659 -16.44936758 11.67296158 -21.9140625 16.94921875 Z " fill="#000000" transform="translate(172.1015625,333.80078125)"/>
</svg>
